<?xml version="1.0" encoding="UTF-8"?>
<!--
!!!!!!! DO NOT TOUCH NOR MODIFY !!!!!!!
!!!!!!! MODIFICATIONS OF THIS FILE WILL NOT BE RATED !!!!!!!
-->
<svg width="989px" height="146px" viewBox="0 0 989 146" version="1.1" xmlns="http://www.w3.org/2000/svg" xmlns:xlink="http://www.w3.org/1999/xlink">
    <title>The Daily Star</title>
    <g stroke="none" fill="#484641" fill-rule="evenodd">
        <path d="M121.142726,0.0932617188 L124.159816,2.21337891 C123.018209,7.48651725 121.455317,11.6451671 119.471095,14.6894531 C117.486873,17.7337392 114.578536,20.1392327 110.745997,21.9060059 C106.913459,23.672779 102.496592,24.5561523 97.495265,24.5561523 C94.8315147,24.5561523 91.5970093,24.393068 87.7916517,24.0668945 L87.7916517,106.506836 C96.0547139,104.006172 102.632448,100.785257 107.52505,96.8439941 C112.417653,92.9027309 116.956833,87.2355513 121.142726,79.8422852 L124.159816,81.3100586 C121.767877,88.5946002 118.995444,94.4384545 115.842433,98.8417969 C110.786744,105.963252 104.263371,111.603251 96.2721205,115.761963 C88.2808696,119.920675 79.0394255,122 68.5475111,122 C58.3274079,122 48.7597953,120.042988 39.8443861,116.128906 C34.6799723,113.845692 29.9505274,110.638367 25.6559095,106.506836 C21.3612917,102.375305 17.8413888,97.3740528 15.0960951,91.5029297 C12.3508014,85.6318066 10.9781752,78.9725307 10.9781752,71.5249023 C10.9781752,64.0229117 12.4731146,56.8472022 15.4630384,49.9975586 C18.4529622,43.147915 22.8562385,36.597362 28.6729994,30.3457031 C32.3696324,26.4316211 37.5883303,22.1098869 44.3292494,17.3803711 L34.0548353,16.8095703 C30.2494778,16.5921213 26.0364665,17.3939525 21.4156752,19.2150879 C16.7948838,21.0362233 13.1934387,23.4688975 10.6112318,26.5131836 C8.02902488,29.5574696 5.78661567,34.0966495 3.88393688,40.1308594 L0.866847038,38.3369141 C2.71516357,30.6174744 5.10706674,24.6105358 8.04262829,20.315918 C11.9567104,14.6078816 17.1210467,10.191015 23.5357924,7.06518555 C29.950538,3.93935612 37.262151,2.37646484 45.4708509,2.37646484 C51.1788873,2.37646484 61.2629336,3.57241643 75.7232924,5.96435547 C90.1836511,8.35629451 100.131794,9.55224609 105.568019,9.55224609 C109.21029,9.55224609 111.996313,8.99504138 113.926173,7.88061523 C115.856033,6.76618909 118.261527,4.17043054 121.142726,0.0932617188 Z M53.4620619,18.1958008 L49.1402845,17.7880859 C41.8557429,24.0397448 36.5011415,30.2913099 33.0763197,36.5429688 C28.4555284,44.9691177 26.1451674,53.6397666 26.1451674,62.5551758 C26.1451674,77.7766061 32.3967324,90.1981941 44.9000502,99.8203125 C48.8684945,96.5042152 51.2875784,93.8133241 52.1573744,91.7475586 C53.0271704,89.6817931 53.4620619,85.4687818 53.4620619,79.1083984 L53.4620619,18.1958008 Z M84.0406752,23.3330078 C78.8762613,22.6262985 74.3099007,21.8652385 70.3414564,21.0498047 L70.3414564,69.8125 C70.3414564,75.5205364 70.1104203,79.1491622 69.6483412,80.6984863 C69.186262,82.2478105 68.1126237,84.0009668 66.4273939,85.9580078 C63.3831079,89.3284674 57.2946271,94.6558881 48.1617689,101.94043 C52.728198,104.169282 56.4247756,105.664221 59.2516127,106.425293 C64.1442153,107.729987 68.8464794,108.382324 73.3585463,108.382324 C75.7504853,108.382324 79.3111593,108.083336 84.0406752,107.485352 L84.0406752,23.3330078 Z M159.620558,5.14892578 L160.435987,7.10595703 C156.576268,9.60662058 153.939738,12.2703309 152.52632,15.097168 C151.112901,17.924005 150.406202,22.4088235 150.406202,28.5517578 L150.406202,55.1347656 L175.60298,35.0751953 C180.984843,38.5543794 184.491155,41.911198 186.122023,45.145752 C187.75289,48.3803059 188.568312,53.8844012 188.568312,61.6582031 L188.568312,98.597168 C188.568312,105.664261 187.834432,110.828597 186.366652,114.090332 C184.029075,119.417833 179.707341,124.419085 173.40132,129.094238 C165.138257,135.291535 154.61932,140.646136 141.844191,145.158203 L140.702589,142.141113 C151.085779,137.846495 158.31585,133.932472 162.393019,130.398926 C166.470188,126.865379 169.133898,123.11444 170.38423,119.145996 C171.308388,116.156072 171.77046,108.382387 171.77046,95.824707 L171.77046,61.6582031 C171.77046,57.8528456 171.38993,55.2163159 170.628859,53.7485352 C169.487251,51.7371319 167.394336,49.7529395 164.35005,47.7958984 L150.406202,59.1303711 L150.406202,104.549805 L156.195753,110.339355 L141.844191,122 L127.329542,110.339355 L133.771437,103.897461 L133.771437,29.6933594 C133.771437,22.9524403 133.173461,18.3317182 131.977491,15.8310547 C130.781522,13.3303911 128.416799,11.0743916 124.883253,9.06298828 L125.780226,7.10595703 C128.661425,7.9213908 130.971786,8.83194484 132.711378,9.83764648 C134.45097,10.8433481 136.73415,12.5965044 139.560987,15.097168 C142.877085,11.9441574 146.057229,9.6337964 149.101515,8.16601562 C152.145801,6.69823485 155.652113,5.69254829 159.620558,5.14892578 Z M231.775636,35.0751953 L254.770753,61.902832 L218.239503,87.5073242 L218.239503,102.348145 L237.157472,109.850098 L249.959718,101.125 L251.753663,103.571289 L225.333741,122 C219.951878,119.118801 215.521421,117.053066 212.042237,115.802734 C208.563053,114.552403 203.616163,113.247728 197.201417,111.888672 L197.201417,109.850098 C199.049734,108.762853 200.286456,107.417407 200.911622,105.813721 C201.536788,104.210034 201.849366,100.744493 201.849366,95.4169922 L201.849366,48.7744141 C206.959418,46.9260975 211.19961,45.240893 214.570069,43.71875 C217.016371,42.5771427 222.751502,39.6959866 231.775636,35.0751953 Z M219.381104,44.4526367 L218.239503,45.0234375 L218.239503,81.9624023 L239.685304,66.9584961 L219.381104,44.4526367 Z M290.873389,0.908691406 L294.705909,0.908691406 C295.575705,3.62680396 297.016283,5.55663492 299.027686,6.69824219 C301.637074,8.22038521 305.877266,8.98144531 311.748389,8.98144531 C315.499385,8.98144531 327.404539,8.60091526 347.46421,7.83984375 C359.586992,7.35058349 367.143231,7.10595703 370.133155,7.10595703 C379.157289,7.10595703 386.835841,8.65525794 393.169044,11.7539062 C399.502246,14.8525546 404.652992,19.6091802 408.621436,26.0239258 C412.58988,32.4386714 415.22641,41.2724047 416.531104,52.5253906 C417.455262,60.407917 418.243503,77.7763957 418.89585,104.631348 C408.295211,111.317905 400.140996,117.107397 394.43296,122 C377.145764,117.16176 361.897381,114.742676 348.687354,114.742676 C339.717583,114.742676 331.400283,115.816314 323.735206,117.963623 C316.070128,120.110932 307.943094,123.549293 299.353858,128.278809 L296.989112,125.180176 C308.133373,119.417777 317.918432,113.519561 326.344581,107.485352 C334.77073,101.451142 340.329186,96.0557692 343.020118,91.2990723 C345.711049,86.5423753 347.056495,80.4946656 347.056495,73.1557617 C347.056495,70.4920114 347.002133,66.5508073 346.893409,61.3320312 C346.784684,57.6897604 346.730323,53.9116407 346.730323,49.9975586 C346.730323,43.0935527 347.124443,38.0107585 347.912696,34.7490234 C348.700949,31.4872884 350.372563,27.7363493 352.927588,23.4960938 L350.807471,23.4960938 C344.175277,27.3014513 339.75841,30.7669928 337.556739,33.8928223 C335.355068,37.0186517 334.254249,41.0006269 334.254249,45.8388672 L334.906592,74.7866211 C334.906592,82.5060607 332.596231,89.4235534 327.97544,95.5393066 C323.354649,101.65506 312.264916,110.475203 294.705909,122 L292.341163,118.819824 C301.20221,112.622528 307.046064,107.539733 309.872901,103.571289 C312.699738,99.6028447 314.113135,95.4441949 314.113135,91.0952148 C314.113135,87.3442195 312.917184,84.1504852 310.525245,81.513916 C308.133306,78.8773468 305.496776,77.559082 302.615577,77.559082 C301.147796,77.559082 299.78876,77.9667928 298.538428,78.7822266 C297.288097,79.5976603 295.602892,81.2828648 293.482764,83.8378906 L290.873389,81.2285156 C292.721706,76.553362 295.181561,73.1285916 298.253028,70.9541016 C301.324495,68.7796115 305.007482,67.6923828 309.3021,67.6923828 C310.552432,67.6923828 311.925058,67.8282864 313.42002,68.1000977 C314.914982,68.3719089 316.532235,68.7796197 318.271827,69.3232422 C318.163102,66.1702316 318.108741,63.4249791 318.108741,61.0874023 C318.108741,52.5525289 319.834716,45.6078555 323.286719,40.2531738 C326.738722,34.8984921 333.357227,29.3128546 343.142432,23.4960938 C334.172661,24.420252 326.426156,24.8823242 319.902686,24.8823242 C312.99868,24.8823242 307.073284,23.9038184 302.126319,21.9467773 C298.429686,20.4246343 295.711614,17.9919601 293.972022,14.6486816 C292.23243,11.3054032 291.199563,6.72545226 290.873389,0.908691406 Z M356.923194,23.4960938 C354.585617,27.4645381 353.009136,30.9164892 352.193702,33.8520508 C351.106457,37.8748574 350.562842,41.6257964 350.562842,45.1049805 L351.215186,77.2329102 C351.215186,81.3644412 350.182319,85.5774525 348.116553,89.8720703 C346.540048,93.0794431 343.57735,96.9934665 339.22837,101.614258 C347.165258,100.309564 353.226558,99.6844073 357.412452,99.7387695 L362.060401,99.8203125 L362.060401,23.4960938 L356.923194,23.4960938 Z M366.219092,54.8085938 C369.53519,57.1461705 372.429936,58.7498329 374.903419,59.6196289 C377.376901,60.4894249 380.054202,60.9243164 382.935401,60.9243164 C385.8166,60.9243164 388.507491,60.4758346 391.008155,59.5788574 C393.508818,58.6818803 396.444336,57.0918083 399.814795,54.8085938 C398.781913,42.5770873 395.628949,34.3005587 390.355811,29.9787598 C385.082673,25.6569608 377.03718,23.4960937 366.219092,23.4960937 L366.219092,54.8085938 Z M366.219092,81.7177734 C369.915725,79.5976456 373.068689,78.1434772 375.678077,77.3552246 C378.287465,76.566972 381.14144,76.1728516 384.240088,76.1728516 C387.230012,76.1728516 390.002445,76.5397913 392.557471,77.2736816 C395.112497,78.007572 398.183918,79.3801983 401.771827,81.3916016 L400.385596,59.293457 C396.906412,61.4135848 393.902943,62.8677532 391.375098,63.6560059 C388.847254,64.4442585 386.088411,64.8383789 383.098487,64.8383789 C380.217288,64.8383789 377.363312,64.3763067 374.536475,63.4521484 C371.709638,62.5279902 368.937205,61.1417736 366.219092,59.293457 L366.219092,81.7177734 Z M366.219092,100.064941 C372.851287,100.608564 378.246659,101.274492 382.405372,102.062744 C386.564084,102.850997 393.073866,104.49543 401.934913,106.996094 C402.043637,98.7873939 402.097999,94.5472019 402.097999,94.2753906 C402.097999,93.6230436 402.043637,91.0136947 401.934913,86.4472656 C398.455729,84.0553266 395.397898,82.3973028 392.761329,81.4731445 C390.12476,80.5489863 387.257194,80.0869141 384.158545,80.0869141 C381.005535,80.0869141 378.083608,80.5489863 375.392676,81.4731445 C372.701745,82.3973028 369.643914,84.0553266 366.219092,86.4472656 L366.219092,100.064941 Z M486.97378,38.581543 L489.909327,39.7231445 C486.973765,44.2895736 485.111886,47.7822958 484.323633,50.201416 C483.535381,52.6205362 483.14126,55.8958127 483.14126,60.0273438 L483.14126,94.7646484 C483.14126,100.527047 483.589742,104.128492 484.486719,105.569092 C485.383696,107.009691 486.457335,107.72998 487.707666,107.72998 C488.360013,107.72998 489.039531,107.566896 489.746241,107.240723 C490.181139,106.968911 491.458632,105.990406 493.57876,104.305176 L495.372705,106.996094 L477.188623,122 C473.00273,118.738265 470.203116,115.816338 468.789698,113.234131 C467.376279,110.651924 466.588038,107.050479 466.424952,102.429688 L441.635889,122 C432.339944,114.389285 427.692041,106.887407 427.692041,99.4941406 C427.692041,94.5471758 428.697728,89.899273 430.709131,85.550293 C433.372882,79.8422566 437.966423,73.1829808 444.489893,65.5722656 L434.704737,44.6972656 L435.846338,42.4140625 C437.966466,42.6315115 439.542948,42.7402344 440.57583,42.7402344 C446.990576,42.7402344 452.644165,40.1852469 457.536768,35.0751953 C461.505212,37.4127721 465.840537,39.2882416 470.542871,40.7016602 C475.245206,42.1150787 478.846651,42.8217773 481.347315,42.8217773 C482.488922,42.8217773 483.358705,42.617922 483.95669,42.2102051 C484.554675,41.8024882 485.560361,40.5929463 486.97378,38.581543 Z M466.424952,54.15625 L438.537256,45.5942383 L448.485498,66.6323242 L466.424952,75.03125 L466.424952,54.15625 Z M466.424952,78.3745117 L446.691553,69.1601562 C443.647267,75.7923509 442.125147,81.6090245 442.125147,86.6103516 C442.125147,95.4170362 446.120712,102.674288 454.111963,108.382324 L466.424952,98.434082 L466.424952,78.3745117 Z M519.417432,7.1875 L529.773389,7.1875 L518.520459,24.8007812 L515.25874,24.8007812 L519.417432,7.1875 Z M513.220166,35.0751953 L527.734815,47.0620117 L521.29292,53.3408203 L521.29292,97.7001953 C521.29292,102.375349 521.727812,105.419589 522.597608,106.833008 C523.467404,108.246426 524.364367,108.953125 525.288526,108.953125 C525.940873,108.953125 526.538848,108.817221 527.082471,108.54541 C527.843542,108.164874 529.420024,107.077646 531.811963,105.283691 L533.768994,107.811523 L515.25874,122 C510.90976,118.901352 508.110146,115.979425 506.859815,113.234131 C505.609483,110.488837 504.984326,105.69144 504.984326,98.8417969 L504.984326,53.3408203 L498.868604,47.0620117 L513.220166,35.0751953 Z M574.122314,5.14892578 L574.122314,7.26904297 C569.827697,9.49789526 566.797047,12.2295574 565.030273,15.4641113 C563.2635,18.6986653 562.380127,23.6047848 562.380127,30.1826172 L562.380127,102.674316 L571.676025,109.605469 L575.263916,106.669922 L577.30249,109.605469 L560.993896,122 C556.046932,117.705382 552.350354,114.851407 549.904053,113.437988 C547.457751,112.02457 544.223246,110.747076 540.200439,109.605469 L540.200439,107.811523 C541.722582,106.887365 542.904944,105.718594 543.747559,104.305176 C544.590173,102.891757 545.174559,101.233733 545.500732,99.3310547 C545.609457,98.6787077 545.690999,95.4170215 545.745361,89.5458984 L545.745361,31.3242188 C545.745361,26.3772539 545.555096,22.9388931 545.174561,21.0090332 C544.794025,19.0791733 544.032965,17.2308845 542.891357,15.4641113 C541.74975,13.6973382 539.819919,11.7267361 537.101807,9.55224609 L538.406494,7.92138672 C543.353459,9.33480524 547.783916,12.2159613 551.697998,16.5649414 C555.775167,12.2703236 559.458154,9.33480606 562.74707,7.75830078 C566.035986,6.1817955 569.827697,5.31201253 574.122314,5.14892578 Z M578.678271,49.3452148 L595.802295,35.0751953 C600.477448,38.2282059 603.508098,40.9734584 604.894336,43.3110352 C606.280573,45.6486119 606.973681,48.8559366 606.973681,52.9331055 L606.973681,54.7270508 L631.681201,35.0751953 C640.10735,43.9362422 644.320361,53.4223127 644.320361,63.5336914 C644.320361,68.9699165 642.934145,74.3924697 640.16167,79.8015137 C637.389195,85.2105576 633.04028,90.3477133 627.114795,95.2131348 C621.189309,100.078556 611.621697,106.452435 598.41167,114.334961 C592.649271,117.814145 589.19732,120.015783 588.055713,120.939941 C585.609411,122.84262 583.869845,124.690909 582.836963,126.484863 C582.075891,127.789557 581.695361,129.257316 581.695361,130.888184 C581.695361,133.660658 583.067987,136.229236 585.813281,138.593994 C588.558575,140.958752 592.187201,142.141113 596.699267,142.141113 C599.961002,142.141113 602.651894,141.570318 604.772021,140.428711 C605.804904,139.885088 606.810591,138.729908 607.789111,136.963135 C608.767632,135.196362 609.610234,134.041181 610.316943,133.497559 C611.023652,132.953936 611.866255,132.682129 612.844775,132.682129 C613.93202,132.682129 614.801803,132.981117 615.45415,133.579102 C616.106497,134.177086 616.432666,134.965327 616.432666,135.943848 C616.432666,137.68344 615.155172,139.395825 612.600146,141.081055 C608.686064,143.799167 603.739174,145.158203 597.759326,145.158203 C591.507667,145.158203 586.69668,143.676854 583.326221,140.714111 C579.955761,137.751369 578.270556,134.231466 578.270556,130.154297 C578.270556,126.13149 580.146026,122.217467 583.897021,118.412109 C585.690976,116.563793 586.805385,115.259118 587.240283,114.498047 C588.436253,112.432281 589.251674,110.516041 589.686572,108.749268 C590.12147,106.982494 590.338916,104.495459 590.338916,101.288086 L590.338916,62.3105469 C590.338916,56.8743218 589.713759,53.1777442 588.463428,51.2207031 C587.484907,49.6985601 586.424859,48.9375 585.283252,48.9375 C584.359093,48.9375 583.163142,49.6441987 581.695361,51.0576172 C581.477912,51.2750662 581.124563,51.6012348 580.635303,52.0361328 L578.678271,49.3452148 Z M606.973681,58.4780273 L606.973681,104.794434 C614.638759,99.249484 620.088493,93.4735815 623.323047,87.4665527 C626.557601,81.459524 628.174853,75.7379829 628.174853,70.3017578 C628.174853,62.9628539 625.184974,55.7871444 619.205127,48.7744141 L606.973681,58.4780273 Z M732.610497,0.0932617188 L769.549462,12.40625 L772.24038,7.59521484 C773.218901,5.85562281 773.912009,4.78198446 774.319726,4.37426758 C774.727443,3.9665507 775.203105,3.76269531 775.746728,3.76269531 C776.29035,3.76269531 776.738832,3.95296034 777.092187,4.33349609 C777.445542,4.71403185 777.622216,5.14892333 777.622216,5.63818359 C777.622216,6.39925511 776.969879,7.89419458 775.665185,10.1230469 L758.459619,39.8862305 L771.914208,39.3969727 C776.154464,39.2338859 781.087764,39.8318617 786.714257,41.190918 C792.34075,42.5499742 797.178918,44.6564799 801.228906,47.510498 C805.278893,50.3645162 808.459037,53.7349252 810.769433,57.6218262 C813.079829,61.5087271 814.235009,65.7896902 814.235009,70.4648438 C814.235009,79.0540794 810.633564,87.4936923 803.430566,95.7839355 C796.227568,104.074179 783.411859,112.81278 764.983056,122 C758.622673,119.390612 751.229517,116.645359 742.803369,113.76416 C727.255765,121.211789 714.56237,124.935547 704.722802,124.935547 C697.710072,124.935547 692.314699,123.399836 688.536523,120.328369 C684.758346,117.256902 682.869287,113.709818 682.869287,109.687012 C682.869287,105.392394 685.152467,101.46478 689.718896,97.9040527 C694.285325,94.3433253 701.053324,92.5629883 710.023095,92.5629883 C713.556641,92.5629883 717.959918,92.9435183 723.233056,93.7045898 L729.348779,82.6147461 L717.85122,83.1040039 C715.024383,83.1583662 711.219083,82.7642457 706.435205,81.9216309 C701.651326,81.079016 697.723713,79.7063897 694.652246,77.8037109 C691.580778,75.9010322 689.284008,73.5634904 687.761865,70.7910156 C686.239722,68.0185408 685.478662,65.110204 685.478662,62.065918 C685.478662,57.2276776 687.191047,52.9331242 690.615869,49.1821289 C692.790359,46.7901899 696.378213,44.6429132 701.37954,42.7402344 L701.297997,41.7617188 C701.297997,36.7060294 703.540407,30.9029462 708.025292,24.3522949 C712.510178,17.8016437 720.705165,9.71538014 732.610497,0.0932617188 Z M762.129052,25.453125 C753.594179,21.2128694 746.934903,18.3724844 742.151025,16.9318848 C737.367147,15.4912851 733.154135,14.7709961 729.511865,14.7709961 C724.401813,14.7709961 720.243163,16.2115741 717.03579,19.0927734 C713.828418,21.9739727 712.224755,25.3443817 712.224755,29.2041016 C712.224755,33.0094591 713.597382,36.1352417 716.342675,38.581543 C719.087969,41.0278443 723.233028,42.2509766 728.777978,42.2509766 C732.474611,42.2509766 740.791911,41.5714586 753.730126,40.2124023 L762.129052,25.453125 Z M744.7604,55.7055664 C737.747669,56.5753624 730.95249,57.0102539 724.374658,57.0102539 C716.981391,57.0102539 711.735513,56.1404709 708.636865,54.4008789 C705.538216,52.6612869 703.227855,49.9432151 701.705712,46.246582 C697.79163,48.7472456 695.834619,51.8458474 695.834619,55.5424805 C695.834619,58.91294 697.356739,61.6853732 700.401025,63.8598633 C704.423831,66.6867003 711.300553,68.1000977 721.031396,68.1000977 C725.543463,68.1000977 731.278594,67.8011098 738.236962,67.203125 L744.7604,55.7055664 Z M742.803369,66.8769531 C755.795947,65.4091723 764.819945,64.675293 769.875634,64.675293 C776.77964,64.675293 782.052699,66.2381842 785.69497,69.3640137 C789.337241,72.4898431 791.158349,76.2271918 791.158349,80.5761719 C791.158349,84.3815294 789.378012,88.0781071 785.817285,91.6660156 C782.256557,95.2539242 774.768269,99.5212969 763.352197,104.468262 L779.497705,109.442383 C786.619159,105.03904 792.109664,100.282415 795.969384,95.1723633 C799.829104,90.0623117 801.758935,84.4359031 801.758935,78.2929688 C801.758935,74.2701622 800.549393,70.3153677 798.130273,66.4284668 C795.711153,62.5415659 792.000985,59.442964 786.999658,57.1325684 C781.998331,54.8221727 776.236018,53.6669922 769.712548,53.6669922 C764.43941,53.6669922 757.698592,54.2106065 749.489892,55.2978516 L742.803369,66.8769531 Z M726.984033,94.3569336 C732.365895,95.4441786 736.755581,96.4498652 740.153222,97.3740234 C743.550863,98.2981817 749.598572,100.146471 758.296533,102.918945 C770.364952,97.2652712 776.399072,91.6388626 776.399072,86.0395508 C776.399072,84.2999587 775.624421,82.7234771 774.075097,81.3100586 C772.525773,79.8966401 770.555171,79.1899414 768.163232,79.1899414 C765.22767,79.1899414 761.612635,79.51611 757.318017,80.168457 C745.358322,81.7993246 737.503094,82.6147461 733.752099,82.6147461 L726.984033,94.3569336 Z M737.33999,112.051758 C723.423253,107.865864 712.143256,105.772949 703.499658,105.772949 C699.041953,105.772949 695.50846,106.751455 692.899072,108.708496 C691.105117,110.01319 690.208154,111.616852 690.208154,113.519531 C690.208154,115.530935 691.105117,117.134597 692.899072,118.330566 C695.725909,120.287607 699.830197,121.266113 705.21206,121.266113 C713.475122,121.266113 724.184325,118.194692 737.33999,112.051758 Z M818.872509,44.0449219 L841.622997,15.9125977 L843.987743,15.9125977 L843.172314,38.418457 L859.56245,38.418457 L859.56245,47.6328125 L843.172314,47.6328125 L843.172314,102.51123 L852.305126,109.279297 L857.523876,105.202148 L859.56245,107.648438 L841.622997,122 C835.480063,115.748341 828.521799,111.508149 820.747997,109.279297 L820.747997,107.648438 C822.922487,106.180657 824.363065,104.658537 825.069775,103.082031 C825.993933,101.070628 826.456005,98.1622912 826.456005,94.3569336 L826.456005,47.6328125 L818.872509,47.6328125 L818.872509,44.0449219 Z M920.383056,38.581543 L923.318603,39.7231445 C920.383041,44.2895736 918.521162,47.7822958 917.732909,50.201416 C916.944657,52.6205362 916.550536,55.8958127 916.550536,60.0273438 L916.550536,94.7646484 C916.550536,100.527047 916.999018,104.128492 917.895995,105.569092 C918.792972,107.009691 919.866611,107.72998 921.116942,107.72998 C921.769289,107.72998 922.448807,107.566896 923.155517,107.240723 C923.590415,106.968911 924.867908,105.990406 926.988036,104.305176 L928.781981,106.996094 L910.597899,122 C906.412006,118.738265 903.612392,115.816338 902.198974,113.234131 C900.785555,110.651924 899.997314,107.050479 899.834228,102.429688 L875.045165,122 C865.74922,114.389285 861.101317,106.887407 861.101317,99.4941406 C861.101317,94.5471758 862.107004,89.899273 864.118407,85.550293 C866.782158,79.8422566 871.375699,73.1829808 877.899169,65.5722656 L868.114013,44.6972656 L869.255614,42.4140625 C871.375742,42.6315115 872.952224,42.7402344 873.985106,42.7402344 C880.399852,42.7402344 886.053441,40.1852469 890.946044,35.0751953 C894.914488,37.4127721 899.249813,39.2882416 903.952147,40.7016602 C908.654482,42.1150787 912.255927,42.8217773 914.756591,42.8217773 C915.898198,42.8217773 916.767981,42.617922 917.365966,42.2102051 C917.963951,41.8024882 918.969637,40.5929463 920.383056,38.581543 Z M899.834228,54.15625 L871.946532,45.5942383 L881.894774,66.6323242 L899.834228,75.03125 L899.834228,54.15625 Z M899.834228,78.3745117 L880.100829,69.1601562 C877.056543,75.7923509 875.534423,81.6090245 875.534423,86.6103516 C875.534423,95.4170362 879.529988,102.674288 887.521239,108.382324 L899.834228,98.434082 L899.834228,78.3745117 Z M976.555712,35.0751953 L988.8687,49.8344727 L976.555712,60.7612305 L966.281298,47.7958984 L958.208544,55.1347656 L958.208544,102.674316 L967.504442,109.36084 L975.903368,102.674316 L977.778856,105.283691 L956.903856,122 C952.446152,118.031556 948.708803,115.17758 945.691698,113.437988 C942.674593,111.698396 939.372136,110.33936 935.784227,109.36084 L935.784227,107.566895 C938.176166,105.881665 939.739058,104.18287 940.472948,102.470459 C941.206838,100.758048 941.573778,97.4827716 941.573778,92.6445312 L941.573778,59.375 C941.573778,55.1891067 941.098116,52.4030831 940.146776,51.0168457 C939.195437,49.6306083 938.148979,48.9375 937.007372,48.9375 C935.75704,48.9375 934.044655,50.0247287 931.870165,52.1992188 L929.913134,49.8344727 L947.1187,35.0751953 C951.739491,38.6087416 954.892455,41.6801627 956.577684,44.2895508 C957.664929,45.9204183 958.208544,48.1764179 958.208544,51.0576172 L976.555712,35.0751953 Z"></path>
    </g>
</svg>
